<svg width="20" height="16" viewBox="0 0 20 16" fill="none" xmlns="http://www.w3.org/2000/svg">
<path d="M13.0831 13.5731C12.8161 13.6396 12.5475 13.6986 12.2773 13.75C10.8114 14.0319 9.30634 14.0261 7.84252 13.733C7.58615 13.682 7.22324 13.5919 6.75545 13.4643L5.22224 15.5C1.43832 15.3759 0 12.7857 0 12.7857C0 7.03579 2.46546 2.37427 2.46546 2.37427C4.93091 0.447421 7.27651 0.500142 7.27651 0.500142L7.9474 1.39299C8.00923 1.38414 8.07146 1.37846 8.13384 1.37598C9.41269 1.20281 10.7087 1.20853 11.986 1.39299L12.7218 0.500142C12.7218 0.500142 15.0691 0.447421 17.5329 2.37597C17.5329 2.37597 20 7.03579 20 12.7857C20 12.7857 18.5434 15.3742 14.7594 15.5L13.0831 13.5731ZM6.69386 7.48477C5.69336 7.48477 4.90261 8.25007 4.90261 9.18543C4.90261 10.1208 5.71001 10.8861 6.69386 10.8861C7.69269 10.8861 8.48344 10.1208 8.48344 9.18543C8.50008 8.25007 7.69436 7.48477 6.69386 7.48477ZM13.0997 7.48477C12.1009 7.48477 11.3101 8.25007 11.3101 9.18543C11.3101 10.1208 12.1175 10.8861 13.0997 10.8861C14.1002 10.8861 14.891 10.1208 14.891 9.18543C14.891 8.25007 14.1002 7.48477 13.0997 7.48477Z" fill="white"/>
</svg>
