<svg width="310" height="55" viewBox="0 0 310 55" fill="none" xmlns="http://www.w3.org/2000/svg">
<path d="M0.78 4.456V13H1.788V9.712H4.332C5.232 9.712 5.928 9.484 6.42 9.004C6.912 8.536 7.164 7.9 7.164 7.084C7.164 6.28 6.912 5.644 6.42 5.164C5.928 4.696 5.232 4.456 4.332 4.456H0.78ZM1.788 8.8V5.368H4.332C4.92 5.368 5.364 5.524 5.664 5.812C5.964 6.1 6.12 6.532 6.12 7.084C6.12 7.648 5.964 8.08 5.664 8.368C5.364 8.656 4.92 8.8 4.332 8.8H1.788ZM12.7898 12.256C13.3418 11.68 13.6298 10.888 13.6298 9.904C13.6298 8.92 13.3418 8.14 12.7898 7.552C12.2138 6.964 11.4938 6.664 10.6298 6.664C9.75384 6.664 9.03384 6.964 8.46984 7.552C7.90584 8.14 7.62984 8.92 7.62984 9.904C7.62984 10.888 7.90584 11.68 8.46984 12.256C9.03384 12.856 9.75384 13.144 10.6298 13.144C11.4938 13.144 12.2138 12.856 12.7898 12.256ZM9.17784 11.644C8.81784 11.236 8.63784 10.648 8.63784 9.904C8.63784 9.16 8.81784 8.572 9.17784 8.152C9.53784 7.744 10.0178 7.528 10.6298 7.528C11.2298 7.528 11.7218 7.744 12.0818 8.152C12.4418 8.572 12.6218 9.16 12.6218 9.904C12.6218 10.648 12.4418 11.236 12.0818 11.644C11.7218 12.076 11.2298 12.28 10.6298 12.28C10.0178 12.28 9.53784 12.076 9.17784 11.644ZM21.1783 9.604C20.7943 10.852 20.5783 11.596 20.5183 11.836C20.5063 11.812 20.2783 11.068 19.8463 9.604L18.9823 6.808H17.9743L17.1103 9.604C16.9183 10.204 16.7023 10.948 16.4503 11.86C16.2103 11.044 15.9943 10.288 15.7783 9.604L14.9023 6.808H13.8703L15.9343 13H16.9423L17.8423 10.132C18.0823 9.388 18.2863 8.692 18.4783 8.032C18.5743 8.416 18.7903 9.124 19.1023 10.132L20.0143 13H21.0223L23.0863 6.808H22.0543L21.1783 9.604ZM29.0269 9.904C29.0269 8.98 28.7749 8.212 28.2709 7.588C27.7669 6.976 27.0709 6.664 26.1829 6.664C25.3189 6.664 24.6349 6.964 24.1189 7.552C23.5909 8.152 23.3269 8.932 23.3269 9.904C23.3269 10.9 23.5909 11.692 24.1309 12.268C24.6589 12.856 25.3429 13.144 26.2069 13.144C26.9029 13.144 27.4789 12.964 27.9349 12.604C28.3909 12.244 28.7029 11.74 28.8709 11.116H27.8749C27.6349 11.884 27.0829 12.268 26.2309 12.268C25.6549 12.268 25.2109 12.1 24.8869 11.764C24.5509 11.428 24.3709 10.912 24.3229 10.24H29.0269V9.904ZM26.1829 7.54C26.6989 7.54 27.1189 7.72 27.4429 8.056C27.7549 8.392 27.9469 8.836 27.9949 9.376H24.3469C24.4189 8.788 24.6229 8.332 24.9469 8.02C25.2589 7.708 25.6789 7.54 26.1829 7.54ZM33.1899 6.712C32.2779 6.712 31.6059 7.108 31.1979 7.9V6.808H30.2859V13H31.2459V9.472C31.2459 8.896 31.4139 8.44 31.7739 8.128C32.1339 7.816 32.6259 7.648 33.2739 7.648H33.5139V6.724C33.4539 6.724 33.3459 6.712 33.1899 6.712ZM39.5677 9.904C39.5677 8.98 39.3157 8.212 38.8117 7.588C38.3077 6.976 37.6117 6.664 36.7237 6.664C35.8597 6.664 35.1757 6.964 34.6597 7.552C34.1317 8.152 33.8677 8.932 33.8677 9.904C33.8677 10.9 34.1317 11.692 34.6717 12.268C35.1997 12.856 35.8837 13.144 36.7477 13.144C37.4437 13.144 38.0197 12.964 38.4757 12.604C38.9317 12.244 39.2437 11.74 39.4117 11.116H38.4157C38.1757 11.884 37.6237 12.268 36.7717 12.268C36.1957 12.268 35.7517 12.1 35.4277 11.764C35.0917 11.428 34.9117 10.912 34.8637 10.24H39.5677V9.904ZM36.7237 7.54C37.2397 7.54 37.6597 7.72 37.9837 8.056C38.2957 8.392 38.4877 8.836 38.5357 9.376H34.8877C34.9597 8.788 35.1637 8.332 35.4877 8.02C35.7997 7.708 36.2197 7.54 36.7237 7.54ZM45.4827 7.696C44.9787 7.012 44.2947 6.664 43.4067 6.664C42.5187 6.664 41.8227 6.964 41.3187 7.54C40.7907 8.128 40.5267 8.92 40.5267 9.904C40.5267 10.888 40.7907 11.668 41.3187 12.256C41.8347 12.856 42.5307 13.144 43.4067 13.144C44.3187 13.144 45.0267 12.784 45.5307 12.04V13H46.4427V4.456H45.4827V7.696ZM42.0747 11.668C41.7147 11.26 41.5347 10.696 41.5347 9.952C41.5347 9.208 41.7147 8.62 42.0747 8.188C42.4347 7.756 42.9267 7.528 43.5267 7.528C44.1267 7.528 44.6187 7.744 44.9787 8.164C45.3387 8.596 45.5187 9.172 45.5187 9.904C45.5187 10.648 45.3387 11.236 44.9787 11.644C44.6187 12.076 44.1267 12.28 43.5267 12.28C42.9147 12.28 42.4347 12.076 42.0747 11.668ZM53.4426 6.664C52.5546 6.664 51.8586 7.012 51.3666 7.696V4.456H50.4066V13H51.3186V12.04C51.8106 12.784 52.5186 13.144 53.4426 13.144C54.3066 13.144 55.0146 12.856 55.5426 12.256C56.0586 11.668 56.3226 10.888 56.3226 9.904C56.3226 8.92 56.0586 8.14 55.5426 7.54C55.0146 6.964 54.3066 6.664 53.4426 6.664ZM53.3226 12.28C52.7106 12.28 52.2306 12.076 51.8706 11.644C51.5106 11.236 51.3306 10.648 51.3306 9.904C51.3306 9.16 51.5106 8.572 51.8706 8.152C52.2306 7.744 52.7106 7.528 53.3226 7.528C53.9346 7.528 54.4146 7.744 54.7746 8.152C55.1346 8.56 55.3146 9.136 55.3146 9.856C55.3146 10.6 55.1226 11.2 54.7626 11.632C54.4026 12.064 53.9226 12.28 53.3226 12.28ZM60.266 9.376C59.906 10.432 59.606 11.32 59.378 12.064C59.09 11.2 58.802 10.3 58.49 9.388L57.614 6.808H56.558L58.886 13.204L58.67 13.78C58.466 14.296 58.094 14.548 57.542 14.548H56.978V15.352C57.182 15.376 57.374 15.388 57.554 15.388C58.07 15.388 58.49 15.292 58.814 15.076C59.126 14.86 59.378 14.5 59.57 13.972L62.186 6.808H61.142L60.266 9.376Z" fill="white"/>
<g clip-path="url(#clip0_1611_1102)">
<path d="M127.246 54.5981H130.831L135.652 37.3036C135.712 37.0927 135.773 36.912 135.833 36.6709L136.014 37.3036L140.563 54.5981H144.149L150.235 33.8086H147.674L142.612 51.4947C142.552 51.7057 142.491 51.9467 142.401 52.3384L142.19 51.4947L137.49 33.8086H134.266L129.265 51.4947C129.204 51.7057 129.144 52.0069 129.054 52.3384L128.813 51.4947L124.082 33.8086H121.461L127.246 54.5981Z" fill="white"/>
<path d="M157.208 54.9008C161.667 54.9008 164.83 51.4961 164.83 47.2478C164.83 42.9995 161.667 39.625 157.208 39.625C152.718 39.625 149.555 42.9995 149.555 47.2478C149.555 51.4961 152.718 54.9008 157.208 54.9008ZM157.208 52.7616C154.225 52.7616 152.055 50.4717 152.055 47.2478C152.055 44.0541 154.225 41.7642 157.208 41.7642C160.16 41.7642 162.36 44.0541 162.36 47.2478C162.36 50.4717 160.16 52.7616 157.208 52.7616Z" fill="white"/>
<path d="M169.736 54.5981V46.2823C169.736 44.2636 170.911 42.034 173.985 42.034C174.467 42.034 175.039 42.0943 175.431 42.2148V39.8647C175.099 39.7743 174.678 39.7441 174.075 39.7441C171.725 39.7441 170.309 40.9795 169.676 42.4558V39.9249H167.266V54.5981H169.736Z" fill="white"/>
<path d="M179.627 54.5981V33.8086H177.156V54.5981H179.627Z" fill="white"/>
<path d="M189.283 54.8994C191.452 54.8994 193.381 53.8147 194.616 51.8864V54.5981H197.057V33.8086H194.586V42.3956C193.351 40.5878 191.483 39.6236 189.283 39.6236C185.125 39.6236 182.082 42.8475 182.082 47.2465C182.082 51.6454 185.125 54.8994 189.283 54.8994ZM189.584 52.7602C186.722 52.7602 184.583 50.3799 184.583 47.2465C184.583 44.1431 186.722 41.7628 189.584 41.7628C192.447 41.7628 194.586 44.1431 194.586 47.2465C194.586 50.3799 192.447 52.7602 189.584 52.7602Z" fill="white"/>
<path d="M44.0547 54.5373V39.904H46.4886V42.0073C47.5956 40.4148 49.253 39.6035 51.3911 39.6035C54.9669 39.6035 57.0401 41.8571 57.0401 45.7934V54.5373H54.5715V45.9974C54.5715 43.2029 53.3063 41.7274 50.9056 41.7274C48.2914 41.7274 46.5186 43.4671 46.5186 46.0543V54.5278L44.0547 54.5373Z" fill="white"/>
<path d="M60.7947 54.5366V42.0066H58.3008V39.9033H59.8348C60.586 39.9033 60.7963 39.6629 60.7963 38.7963V38.0451C60.7963 35.2506 62.6591 33.5078 65.634 33.5078C66.9862 33.5078 68.098 33.8383 68.9392 34.4994L67.9477 36.4525C67.3331 35.9153 66.5403 35.6261 65.7241 35.6412C64.1317 35.6412 63.2302 36.5126 63.2302 38.1953V39.908H68.3748V42.0114H63.2666V54.5414L60.7947 54.5366Z" fill="white"/>
<path d="M69.75 35.7261C69.75 35.2958 69.9209 34.8831 70.2252 34.5788C70.5296 34.2745 70.9421 34.1035 71.3726 34.1035C71.8028 34.1035 72.2156 34.2745 72.5199 34.5788C72.8242 34.8831 72.9952 35.2958 72.9952 35.7261C72.9952 36.1564 72.8242 36.5692 72.5199 36.8735C72.2156 37.1777 71.8028 37.3487 71.3726 37.3487C70.9421 37.3487 70.5296 37.1777 70.2252 36.8735C69.9209 36.5692 69.75 36.1564 69.75 35.7261Z" fill="white"/>
<path d="M77.0156 54.5373V39.904H79.4463V42.0073C80.5533 40.4148 82.2106 39.6035 84.3488 39.6035C87.9262 39.6035 89.9979 41.8571 89.9979 45.7934V54.5373H87.5323V45.9974C87.5323 43.2029 86.2673 41.7274 83.8665 41.7274C81.2523 41.7274 79.4794 43.4671 79.4794 46.0543V54.5278L77.0156 54.5373Z" fill="white"/>
<path d="M91.2773 35.7261C91.2773 35.2958 91.4483 34.8831 91.7526 34.5788C92.0567 34.2745 92.4695 34.1035 92.8999 34.1035C93.3302 34.1035 93.743 34.2745 94.0473 34.5788C94.3516 34.8831 94.5225 35.2958 94.5225 35.7261C94.5225 36.1564 94.3516 36.5692 94.0473 36.8735C93.743 37.1777 93.3302 37.3487 92.8999 37.3487C92.4695 37.3487 92.0567 37.1777 91.7526 36.8735C91.4483 36.5692 91.2773 36.1564 91.2773 35.7261Z" fill="white"/>
<path d="M99.5525 50.3897V42.0079H97.0586V39.9046H98.5309C99.3121 39.9046 99.5525 39.6041 99.5525 38.7327V35.9082H102.017V38.7311C102.017 39.3321 101.956 39.6626 101.806 39.903H107.095V42.0063H102.017V50.1493C102.017 51.9222 102.618 52.6797 104.15 52.6797C105.081 52.6797 105.773 52.4093 106.704 51.628L107.756 53.4309C106.697 54.3694 105.324 54.8738 103.909 54.8431C101.113 54.8369 99.5525 53.2443 99.5525 50.3897Z" fill="white"/>
<path d="M121.906 47.6864H110.428C110.608 50.7213 112.681 52.7345 115.686 52.7345C117.399 52.7345 118.751 52.2237 119.923 51.0518L121.275 52.6744C119.863 54.0867 117.91 54.8377 115.656 54.8377C111.149 54.8377 107.934 51.6828 107.934 47.2056C107.934 42.9088 111.059 39.6035 115.145 39.6035C119.352 39.6035 121.936 42.5482 121.936 46.815C121.944 47.1058 121.934 47.3968 121.906 47.6864ZM119.502 45.7886C119.232 43.2583 117.579 41.6768 115.115 41.6768C112.771 41.6768 111.003 43.3595 110.518 45.7886H119.502Z" fill="white"/>
<path d="M70.1367 41.5638C70.1367 41.8865 70.2004 42.206 70.3239 42.5041C70.4475 42.8022 70.6284 43.073 70.8566 43.3011C71.0848 43.5292 71.3558 43.71 71.6541 43.8334C71.9521 43.9567 72.2717 44.0201 72.5943 44.0199V39.8906H70.1367V41.5638Z" fill="white"/>
<path d="M75.0575 46.4811C75.0575 45.8295 74.7988 45.2047 74.3382 44.7438C73.8777 44.283 73.253 44.0239 72.6016 44.0234V54.5402H75.0575V46.4811Z" fill="white"/>
<path d="M91.7305 43.0884C91.7303 43.411 91.7937 43.7306 91.9171 44.0287C92.0404 44.3269 92.2212 44.5979 92.4494 44.8261C92.6773 45.0543 92.9483 45.2354 93.2464 45.3589C93.5445 45.4824 93.8639 45.546 94.1866 45.546V39.8906H91.7305V43.0884Z" fill="white"/>
<path d="M96.6513 48.0029C96.6513 47.3515 96.3926 46.7268 95.932 46.2663C95.4714 45.8056 94.8467 45.5469 94.1953 45.5469V54.5375H96.6513V48.0029Z" fill="white"/>
<path d="M41.5045 43.0786C41.5024 42.4282 41.2425 41.8051 40.7819 41.3459C40.3212 40.8867 39.6973 40.6289 39.0469 40.6289V54.5285H41.5045V43.0786Z" fill="white"/>
<path d="M36.586 38.1655C36.5849 38.4883 36.6475 38.8081 36.7702 39.1067C36.8928 39.4053 37.0732 39.6767 37.3008 39.9056C37.5285 40.1344 37.799 40.3161 38.097 40.4403C38.3949 40.5645 38.7144 40.6288 39.0372 40.6294V33.75H36.586V38.1655Z" fill="white"/>
</g>
<g clip-path="url(#clip1_1611_1102)">
<path d="M0.046875 42.3418H12.2684C12.2684 43.9467 11.9523 45.536 11.3382 47.0188C10.7239 48.5016 9.82373 49.8489 8.68886 50.9837C7.55398 52.1186 6.20665 53.0188 4.72387 53.633C3.24108 54.2472 1.65183 54.5634 0.046875 54.5634V42.3418Z" fill="white"/>
<path d="M12.2695 42.3423V26.0469H24.4911V30.1207C24.4911 36.8707 19.0195 42.3423 12.2695 42.3423Z" fill="white"/>
</g>
<path d="M215.278 41.808H213.586L213.262 42.264C212.998 42.648 212.662 43.14 212.278 43.728C212.038 43.356 211.702 42.864 211.282 42.264L210.958 41.808H209.23L211.414 44.832L209.11 48H210.802L211.03 47.676C211.27 47.34 211.666 46.752 212.242 45.924C212.29 46.02 212.482 46.296 212.794 46.728C212.83 46.788 213.046 47.1 213.442 47.676L213.67 48H215.398L213.094 44.82L215.278 41.808Z" fill="white"/>
<path d="M228.074 55H231.771V42.6601C231.771 41.4972 233.198 41.1096 233.717 42.5955L238.258 55H241.501L246.042 42.5955C246.593 41.0126 247.987 41.3357 247.987 42.6278V55H251.685V32H246.333L241.209 46.4396C240.723 47.9256 239.036 47.9256 238.55 46.4396L233.425 32H228.074V55Z" fill="white"/>
<path d="M261.469 32H257.837L257.869 55H261.502L261.469 32Z" fill="white"/>
<path d="M265.635 32V35.0688H271.245C273.418 35.0688 274.456 36.1025 274.456 38.073V55H278.121V35.0688H286.975V32H265.635Z" fill="white"/>
<path d="M291.074 32V55H294.739V48.6039C294.739 45.9551 296.037 44.6952 298.664 44.6952H305.409V55H309.074V32H305.409V37.6854C305.409 40.3343 304.177 41.6264 301.453 41.6264H294.739V32H291.074Z" fill="white"/>
<defs>
<clipPath id="clip0_1611_1102">
<rect width="160.491" height="21.4925" fill="white" transform="translate(36.5859 33.5078)"/>
</clipPath>
<clipPath id="clip1_1611_1102">
<rect width="24.4909" height="28.6098" fill="white" transform="translate(0 26)"/>
</clipPath>
</defs>
</svg>
