<svg width="18" height="17" viewBox="0 0 18 17" fill="none" xmlns="http://www.w3.org/2000/svg">
<path d="M8.99935 0.166016C11.2635 0.166016 11.546 0.174349 12.4344 0.216016C13.3219 0.257682 13.926 0.396849 14.4577 0.603516C15.0077 0.815183 15.471 1.10185 15.9344 1.56435C16.3581 1.98093 16.686 2.48484 16.8952 3.04102C17.101 3.57185 17.241 4.17685 17.2827 5.06435C17.3219 5.95268 17.3327 6.23518 17.3327 8.49935C17.3327 10.7635 17.3244 11.046 17.2827 11.9344C17.241 12.8219 17.101 13.426 16.8952 13.9577C16.6866 14.5142 16.3586 15.0182 15.9344 15.4344C15.5177 15.858 15.0138 16.1858 14.4577 16.3952C13.9269 16.601 13.3219 16.741 12.4344 16.7827C11.546 16.8219 11.2635 16.8327 8.99935 16.8327C6.73518 16.8327 6.45268 16.8244 5.56435 16.7827C4.67685 16.741 4.07268 16.601 3.54102 16.3952C2.98462 16.1864 2.48062 15.8585 2.06435 15.4344C1.64052 15.0178 1.31263 14.5139 1.10352 13.9577C0.896849 13.4269 0.757682 12.8219 0.716016 11.9344C0.676849 11.046 0.666016 10.7635 0.666016 8.49935C0.666016 6.23518 0.674349 5.95268 0.716016 5.06435C0.757682 4.17602 0.896849 3.57268 1.10352 3.04102C1.31205 2.4845 1.64002 1.98045 2.06435 1.56435C2.48074 1.14038 2.98471 0.812457 3.54102 0.603516C4.07268 0.396849 4.67602 0.257682 5.56435 0.216016C6.45268 0.176849 6.73518 0.166016 8.99935 0.166016ZM8.99935 4.33268C7.89428 4.33268 6.83447 4.77167 6.05307 5.55307C5.27167 6.33447 4.83268 7.39428 4.83268 8.49935C4.83268 9.60442 5.27167 10.6642 6.05307 11.4456C6.83447 12.227 7.89428 12.666 8.99935 12.666C10.1044 12.666 11.1642 12.227 11.9456 11.4456C12.727 10.6642 13.166 9.60442 13.166 8.49935C13.166 7.39428 12.727 6.33447 11.9456 5.55307C11.1642 4.77167 10.1044 4.33268 8.99935 4.33268ZM14.416 4.12435C14.416 3.84808 14.3063 3.58313 14.1109 3.38778C13.9156 3.19243 13.6506 3.08268 13.3744 3.08268C13.0981 3.08268 12.8331 3.19243 12.6378 3.38778C12.4424 3.58313 12.3327 3.84808 12.3327 4.12435C12.3327 4.40062 12.4424 4.66557 12.6378 4.86092C12.8331 5.05627 13.0981 5.16602 13.3744 5.16602C13.6506 5.16602 13.9156 5.05627 14.1109 4.86092C14.3063 4.66557 14.416 4.40062 14.416 4.12435ZM8.99935 5.99935C9.66239 5.99935 10.2983 6.26274 10.7671 6.73158C11.236 7.20042 11.4994 7.83631 11.4994 8.49935C11.4994 9.16239 11.236 9.79828 10.7671 10.2671C10.2983 10.736 9.66239 10.9994 8.99935 10.9994C8.33631 10.9994 7.70042 10.736 7.23158 10.2671C6.76274 9.79828 6.49935 9.16239 6.49935 8.49935C6.49935 7.83631 6.76274 7.20042 7.23158 6.73158C7.70042 6.26274 8.33631 5.99935 8.99935 5.99935Z" fill="white"/>
</svg>
