<svg width="150" height="38" viewBox="0 0 150 38" fill="none" xmlns="http://www.w3.org/2000/svg">
<path d="M45.3906 2.26257C45.3906 2.524 45.603 2.73593 45.865 2.73593H49.3147C49.5767 2.73593 49.7891 2.94786 49.7891 3.20928V15.4515C49.7891 15.7129 50.0014 15.9249 50.2634 15.9249H52.0563C52.3183 15.9249 52.5306 15.7129 52.5306 15.4515V3.20929C52.5306 2.94786 52.743 2.73593 53.005 2.73593H56.4746C56.7366 2.73593 56.949 2.524 56.949 2.26257V0.473357C56.949 0.211929 56.7366 0 56.4746 0H45.865C45.603 0 45.3906 0.211929 45.3906 0.473357V2.26257Z" fill="white"/>
<path d="M67.0959 0.000443473H64.8966C63.6402 0.000443473 62.5302 0.458687 61.5937 1.36525C61.1533 1.79305 60.805 2.306 60.57 2.87273C60.335 3.43947 60.2183 4.04808 60.227 4.66135V11.2653C60.227 12.5336 60.6934 13.6422 61.6136 14.5614C62.0393 14.9994 62.5499 15.3462 63.1144 15.5807C63.6788 15.8152 64.2853 15.9325 64.8966 15.9253H67.0959C68.3659 15.9253 69.4822 15.4679 70.4187 14.5614C70.8591 14.1336 71.2074 13.6206 71.4424 13.0539C71.6774 12.4872 71.7941 11.8786 71.7854 11.2653V4.66135C71.7936 4.04635 71.6747 3.43626 71.4361 2.86916C71.1975 2.30205 70.8444 1.79011 70.3988 1.36525C69.9702 0.925579 69.4562 0.577774 68.8883 0.343107C68.3204 0.10844 67.7105 -0.00815777 67.0959 0.000443473ZM67.1094 13.1894H64.903C64.646 13.1935 64.391 13.1447 64.1538 13.046C63.9166 12.9473 63.7023 12.8008 63.5245 12.6157C63.343 12.4409 63.1998 12.2303 63.1041 11.9974C63.0084 11.7645 62.9623 11.5142 62.9686 11.2626V4.65864C62.9645 4.40281 63.0135 4.1489 63.1126 3.91292C63.2117 3.67694 63.3587 3.46401 63.5444 3.28753C63.7202 3.10727 63.9313 2.96506 64.1646 2.86977C64.3978 2.77448 64.6483 2.72815 64.9003 2.73366H67.1067C67.3649 2.72896 67.6213 2.77776 67.8597 2.87698C68.098 2.97619 68.3132 3.12366 68.4915 3.31008C68.6729 3.485 68.8159 3.69556 68.9116 3.92845C69.0073 4.16135 69.0535 4.41152 69.0474 4.66316V11.2671C69.0516 11.5228 69.0026 11.7766 68.9035 12.0124C68.8044 12.2483 68.6573 12.4611 68.4716 12.6373C68.2949 12.818 68.0827 12.9604 67.8483 13.0554C67.6139 13.1504 67.3623 13.196 67.1094 13.1894Z" fill="white"/>
<path d="M78.7838 7.05946C78.7242 7.1197 78.6214 7.0776 78.6214 6.99296V0.473357C78.6214 0.211929 78.409 0 78.147 0H76.3532C76.0913 0 75.8789 0.211929 75.8789 0.473357V15.4515C75.8789 15.7129 76.0913 15.9249 76.3532 15.9249H78.147C78.409 15.9249 78.6214 15.7129 78.6214 15.4515V11.3124C78.6214 11.1126 78.7005 10.921 78.8414 10.7791L80.4714 9.13858C80.5548 9.05461 80.6941 9.06665 80.7618 9.16368L85.2538 15.6003C85.3957 15.8036 85.6283 15.9249 85.8766 15.9249H86.9439C87.2059 15.9249 87.4183 15.7129 87.4183 15.4515V14.2567C87.4183 14.1195 87.3756 13.9858 87.2962 13.8738L82.5981 7.25013C82.545 7.17529 82.5533 7.07325 82.6178 7.0079L87.2274 2.33492C87.3497 2.21096 87.4183 2.04397 87.4183 1.87002V0.473356C87.4183 0.211928 87.2059 0 86.9439 0H86.0435C85.8659 0 85.6957 0.0710145 85.5709 0.197173L78.7838 7.05946Z" fill="white"/>
<path d="M91.5312 15.4515C91.5312 15.7129 91.7436 15.9249 92.0056 15.9249H102.616C102.878 15.9249 103.091 15.7129 103.091 15.4515V13.6623C103.091 13.4009 102.878 13.1889 102.616 13.1889H94.7472C94.4852 13.1889 94.2728 12.977 94.2728 12.7156V9.81412C94.2728 9.55269 94.4852 9.34076 94.7472 9.34076H100.397C100.659 9.34076 100.871 9.12883 100.871 8.86741V7.07729C100.871 6.81586 100.659 6.60393 100.397 6.60393H94.7472C94.4852 6.60393 94.2728 6.392 94.2728 6.13058V3.20928C94.2728 2.94786 94.4852 2.73593 94.7472 2.73593H102.616C102.878 2.73593 103.091 2.524 103.091 2.26257V0.473357C103.091 0.211929 102.878 0 102.616 0H92.0056C91.7436 0 91.5312 0.211929 91.5312 0.473357V15.4515Z" fill="white"/>
<path d="M116.004 6.43621C116.004 6.60492 115.8 6.68939 115.68 6.57006L109.322 0.221969C109.18 0.0798487 108.987 0 108.786 0H107.662C107.4 0 107.188 0.211929 107.188 0.473357V15.4515C107.188 15.7129 107.4 15.9249 107.662 15.9249H109.455C109.717 15.9249 109.929 15.7129 109.929 15.4515V5.09631C109.929 4.92776 110.133 4.84322 110.253 4.96223L115.725 10.4074C115.904 10.585 116.004 10.8262 116.004 11.0778V15.4515C116.004 15.7129 116.217 15.9249 116.479 15.9249H118.272C118.533 15.9249 118.746 15.7129 118.746 15.4515V0.473357C118.746 0.211929 118.533 0 118.272 0H116.479C116.217 0 116.004 0.211929 116.004 0.473357V6.43621Z" fill="white"/>
<path d="M45.3555 23.3524C45.3555 23.6138 45.5678 23.8258 45.8298 23.8258H49.2796C49.5415 23.8258 49.7539 24.0377 49.7539 24.2991V36.5413C49.7539 36.8028 49.9663 37.0147 50.2283 37.0147H52.0212C52.2831 37.0147 52.4955 36.8028 52.4955 36.5413V24.2991C52.4955 24.0377 52.7079 23.8258 52.9698 23.8258H56.4404C56.7024 23.8258 56.9147 23.6138 56.9147 23.3524V21.5632C56.9147 21.3018 56.7024 21.0898 56.4404 21.0898H45.8298C45.5678 21.0898 45.3555 21.3018 45.3555 21.5632V23.3524Z" fill="white"/>
<path d="M67.0646 21.0903H64.8654C63.6089 21.0903 62.4989 21.5485 61.5634 22.4551C61.1229 22.8827 60.7744 23.3955 60.5393 23.9621C60.3041 24.5286 60.1872 25.1371 60.1957 25.7503V32.3551C60.1957 33.6234 60.6622 34.732 61.5823 35.6503C62.0077 36.0889 62.5182 36.4364 63.0827 36.6713C63.6472 36.9063 64.2538 37.0239 64.8654 37.0169H67.0646C68.3301 37.0169 69.4509 36.5587 70.3874 35.6521C70.8278 35.2245 71.1763 34.7117 71.4115 34.1452C71.6466 33.5786 71.7635 32.9701 71.755 32.3569V25.7503C71.763 25.1354 71.644 24.5254 71.4052 23.9585C71.1665 23.3915 70.8132 22.8797 70.3675 22.4551C69.9389 22.0154 69.4249 21.6676 68.857 21.433C68.2891 21.1983 67.6792 21.0817 67.0646 21.0903ZM67.0782 34.2792H64.8717C64.6147 34.2834 64.3597 34.2346 64.1225 34.1359C63.8853 34.0371 63.6711 33.8906 63.4932 33.7055C63.3117 33.5307 63.1685 33.3202 63.0728 33.0872C62.9771 32.8543 62.931 32.6041 62.9373 32.3524V25.7503C62.9333 25.4946 62.9824 25.2409 63.0815 25.005C63.1806 24.7692 63.3275 24.5564 63.5131 24.3801C63.6889 24.1998 63.9 24.0576 64.1333 23.9623C64.3666 23.867 64.617 23.8207 64.869 23.8262H67.0754C67.3324 23.822 67.5875 23.8708 67.8246 23.9696C68.0618 24.0683 68.2761 24.2148 68.4539 24.3999C68.6353 24.5748 68.7784 24.7854 68.8741 25.0183C68.9698 25.2512 69.016 25.5014 69.0098 25.753V32.3578C69.014 32.6135 68.965 32.8673 68.8659 33.1032C68.7668 33.339 68.6197 33.5518 68.434 33.7281C68.258 33.9078 68.0468 34.0495 67.8135 34.1443C67.5803 34.2392 67.3299 34.2851 67.0782 34.2792Z" fill="white"/>
<path d="M84.6644 32.3547C84.6686 32.6104 84.6196 32.8642 84.5205 33.1C84.4214 33.3359 84.2744 33.5487 84.0886 33.7249C83.9129 33.9052 83.7017 34.0474 83.4685 34.1427C83.2352 34.2379 82.9848 34.2843 82.7328 34.2788H80.5236C80.2666 34.2829 80.0116 34.2341 79.7744 34.1354C79.5372 34.0367 79.323 33.8902 79.1451 33.7051C78.9636 33.5303 78.8204 33.3197 78.7247 33.0868C78.629 32.8539 78.5829 32.6036 78.5892 32.352V21.5632C78.5892 21.3018 78.3769 21.0898 78.1149 21.0898H76.322C76.06 21.0898 75.8477 21.3018 75.8477 21.5632V32.3547C75.8477 33.623 76.3141 34.7316 77.2343 35.6499C77.6592 36.0883 78.1693 36.4355 78.7333 36.6705C79.2973 36.9055 79.9034 37.0232 80.5146 37.0165H82.7138C83.9838 37.0165 85.1001 36.5583 86.0366 35.6517C86.4769 35.224 86.8252 34.7112 87.0602 34.1446C87.2952 33.578 87.4119 32.9696 87.4033 32.3565V21.5632C87.4033 21.3018 87.1909 21.0898 86.929 21.0898H85.1362C84.8742 21.0898 84.6618 21.3018 84.6618 21.5633L84.6644 32.3547Z" fill="white"/>
<path d="M103.059 25.7503C103.067 25.1355 102.948 24.5256 102.71 23.9586C102.471 23.3917 102.118 22.8799 101.673 22.4551C101.244 22.0154 100.73 21.6676 100.162 21.433C99.5943 21.1983 98.9844 21.0817 98.3697 21.0903H91.9743C91.7124 21.0903 91.5 21.3022 91.5 21.5636V36.5436C91.5 36.805 91.7124 37.0169 91.9743 37.0169H93.7681C94.0301 37.0169 94.2425 36.805 94.2425 36.5436V30.9053C94.2425 30.6439 94.4548 30.4319 94.7168 30.4319H98.3833C98.6432 30.4265 98.9014 30.4745 99.1418 30.573C99.3823 30.6716 99.5998 30.8186 99.7808 31.0048C99.9618 31.1788 100.105 31.3885 100.201 31.6204C100.296 31.8524 100.343 32.1016 100.338 32.3524C100.324 33.3005 100.318 34.1565 100.318 34.8971V36.5436C100.318 36.805 100.53 37.0169 100.792 37.0169H102.585C102.847 37.0169 103.059 36.805 103.059 36.5436V32.3569C103.059 31.1788 102.582 30.1487 101.638 29.286C101.504 29.1638 101.505 28.9495 101.639 28.8277C102.582 27.9719 103.059 26.9396 103.059 25.7503ZM100.318 25.7503C100.323 26.0093 100.275 26.2666 100.176 26.506C100.077 26.7454 99.929 26.9617 99.7419 27.1413C99.5661 27.3215 99.3549 27.4637 99.1217 27.5589C98.8884 27.6542 98.638 27.7006 98.386 27.6951H94.7195C94.4576 27.6951 94.2452 27.4832 94.2452 27.2218V24.2996C94.2452 24.0381 94.4576 23.8262 94.7195 23.8262H98.386C98.643 23.822 98.898 23.8708 99.1352 23.9696C99.3724 24.0683 99.5866 24.2148 99.7645 24.3999C99.9451 24.5747 100.087 24.785 100.183 25.0174C100.278 25.2498 100.324 25.4993 100.318 25.7503Z" fill="white"/>
<path d="M122.809 36.5413C122.809 36.8028 123.021 37.0147 123.283 37.0147H133.894C134.155 37.0147 134.368 36.8028 134.368 36.5413V34.7521C134.368 34.4907 134.155 34.2788 133.894 34.2788H126.024C125.763 34.2788 125.55 34.0668 125.55 33.8054V30.9031C125.55 30.6416 125.763 30.4297 126.024 30.4297H131.673C131.935 30.4297 132.148 30.2178 132.148 29.9563V28.1671C132.148 27.9057 131.935 27.6938 131.673 27.6938H126.024C125.763 27.6938 125.55 27.4818 125.55 27.2204V24.2991C125.55 24.0377 125.763 23.8258 126.024 23.8258H133.894C134.155 23.8258 134.368 23.6138 134.368 23.3524V21.5632C134.368 21.3018 134.155 21.0898 133.894 21.0898H123.283C123.021 21.0898 122.809 21.3018 122.809 21.5632V36.5413Z" fill="white"/>
<path d="M147.732 21.0898C147.47 21.0898 147.258 21.3018 147.258 21.5632V26.0184C147.258 26.2185 147.178 26.4104 147.037 26.5523L144.441 29.1587C144.33 29.2702 144.149 29.2705 144.038 29.1593L141.425 26.5517C141.282 26.4097 141.203 26.217 141.203 26.0162V21.5632C141.203 21.3018 140.99 21.0898 140.728 21.0898H138.935C138.673 21.0898 138.461 21.3018 138.461 21.5632V26.9923C138.461 27.2433 138.561 27.4841 138.739 27.6616L142.693 31.6083C142.799 31.7148 142.859 31.8593 142.859 32.0099V36.5413C142.859 36.8028 143.072 37.0147 143.334 37.0147H145.127C145.389 37.0147 145.601 36.8028 145.601 36.5413V32.0099C145.601 31.8593 145.661 31.7148 145.768 31.6083L149.722 27.6616C149.899 27.4841 149.999 27.2433 149.999 26.9923V21.5632C149.999 21.3018 149.787 21.0898 149.525 21.0898H147.732Z" fill="white"/>
<path d="M116 27.5475C116 27.7162 115.796 27.8007 115.676 27.6814L109.319 21.3333C109.176 21.1912 108.983 21.1113 108.782 21.1113H107.658C107.396 21.1113 107.184 21.3233 107.184 21.5847V36.5628C107.184 36.8243 107.396 37.0362 107.658 37.0362H109.451C109.713 37.0362 109.925 36.8243 109.925 36.5628V26.2076C109.925 26.0391 110.129 25.9546 110.249 26.0736L115.722 31.5187C115.9 31.6963 116 31.9375 116 32.1891V36.5628C116 36.8243 116.213 37.0362 116.475 37.0362H118.268C118.53 37.0362 118.742 36.8243 118.742 36.5628V21.5847C118.742 21.3233 118.53 21.1113 118.268 21.1113H116.475C116.213 21.1113 116 21.3233 116 21.5847V27.5475Z" fill="white"/>
<path fill-rule="evenodd" clip-rule="evenodd" d="M0 18.5078C0 28.7131 8.31953 37.0165 18.5459 37.0165C28.7723 37.0165 37.0919 28.7121 37.0919 18.5078C37.0919 8.30343 28.7723 0 18.5459 0C8.31953 0 0 8.3024 0 18.5078ZM2.26887 18.5078C2.26887 9.55183 9.57359 2.2642 18.5459 2.2642C27.5214 2.2642 34.823 9.5508 34.823 18.5078C34.823 27.4647 27.5214 34.7523 18.5459 34.7523C9.5705 34.7523 2.26887 27.4637 2.26887 18.5078ZM27.1001 13.0272H9.99269C9.94376 13.0273 9.89566 13.0145 9.85316 12.9902C9.81065 12.9659 9.77522 12.9309 9.75035 12.8886C9.72549 12.8463 9.71206 12.7983 9.71139 12.7492C9.71073 12.7002 9.72285 12.6518 9.74655 12.6088L10.8385 10.6316C10.8628 10.5874 10.8984 10.5505 10.9417 10.5248C10.985 10.4991 11.0343 10.4855 11.0846 10.4854H25.9759C26.0256 10.4856 26.0743 10.4988 26.1172 10.5239C26.1601 10.5489 26.1956 10.5849 26.2203 10.6281L27.3445 12.6062C27.3691 12.649 27.3819 12.6976 27.3818 12.747C27.3817 12.7964 27.3685 12.8449 27.3438 12.8876C27.319 12.9303 27.2834 12.9657 27.2406 12.9902C27.1979 13.0147 27.1494 13.0275 27.1001 13.0272ZM8.994 14.7753H16.8564C17.0059 14.7735 17.1543 14.8016 17.2928 14.8579C17.4313 14.9142 17.5571 14.9976 17.6628 15.1032C17.8225 15.2684 17.9295 15.4773 17.9701 15.7033C18.0107 15.9294 17.9831 16.1623 17.8908 16.3727C17.3827 17.5778 15.5219 21.176 14.1721 23.7862L14.1721 23.7863L14.1721 23.7864L14.172 23.7864C13.5003 25.0853 12.9552 26.1395 12.7662 26.5323C12.7433 26.58 12.7072 26.6202 12.6621 26.6482C12.6171 26.6761 12.565 26.6907 12.512 26.6901H11.6812H10.8854C10.8371 26.69 10.7898 26.6775 10.7478 26.6538C10.7058 26.6301 10.6707 26.5961 10.6457 26.5549C10.6207 26.5138 10.6067 26.4669 10.6051 26.4188C10.6034 26.3708 10.6142 26.3231 10.6364 26.2803C11.337 24.9306 13.5638 20.6329 14.0312 19.6433C15.014 17.5681 13.5857 17.3318 12.83 17.3318H7.7631C7.71392 17.3317 7.66562 17.3188 7.62299 17.2943C7.58036 17.2698 7.54489 17.2346 7.52008 17.1922C7.49527 17.1498 7.48199 17.1017 7.48156 17.0526C7.48113 17.0036 7.49356 16.9552 7.51761 16.9124L8.59651 15.0064C8.63638 14.9362 8.69417 14.8779 8.764 14.8373C8.83383 14.7967 8.91319 14.7753 8.994 14.7753ZM29.4147 16.9154L28.3365 15.0063C28.2965 14.9361 28.2385 14.8777 28.1685 14.8372C28.0985 14.7966 28.019 14.7752 27.9381 14.7753H20.0755C19.9258 14.7738 19.7773 14.8022 19.6387 14.8589C19.5002 14.9157 19.3745 14.9996 19.2691 15.1057C19.1093 15.2709 19.0023 15.4798 18.9617 15.7057C18.9211 15.9317 18.9487 16.1646 19.041 16.3749C19.5546 17.5927 21.4497 21.256 22.8029 23.8717L22.8031 23.8722C23.455 25.1323 23.981 26.1492 24.1662 26.5323C24.1891 26.5801 24.2252 26.6204 24.2702 26.6483C24.3153 26.6763 24.3674 26.6908 24.4205 26.6901H25.2505H26.0474C26.0956 26.69 26.1429 26.6775 26.1849 26.6538C26.2269 26.6301 26.2621 26.5961 26.2871 26.555C26.3121 26.5138 26.3261 26.467 26.3277 26.4189C26.3293 26.3708 26.3185 26.3231 26.2964 26.2804L26.1629 26.0228L26.1629 26.0227C25.3496 24.4529 23.342 20.5779 22.9011 19.6448C21.9217 17.5701 23.3467 17.3338 24.1025 17.3338H29.17C29.219 17.3335 29.2671 17.3204 29.3094 17.2959C29.3518 17.2714 29.3871 17.2364 29.4118 17.1942C29.4365 17.1519 29.4497 17.104 29.4502 17.0552C29.4507 17.0063 29.4385 16.9581 29.4147 16.9154Z" fill="white"/>
</svg>
