<svg width="150" height="38" viewBox="0 0 150 38" fill="none" xmlns="http://www.w3.org/2000/svg">
<path d="M45.3906 2.26257C45.3906 2.524 45.6029 2.73593 45.8649 2.73593H49.3147C49.5767 2.73593 49.789 2.94786 49.789 3.20928V15.4515C49.789 15.7129 50.0014 15.9249 50.2634 15.9249H52.0563C52.3182 15.9249 52.5306 15.7129 52.5306 15.4515V3.20929C52.5306 2.94786 52.743 2.73593 53.0049 2.73593H56.4746C56.7366 2.73593 56.9489 2.524 56.9489 2.26257V0.473357C56.9489 0.211929 56.7366 0 56.4746 0H45.8649C45.6029 0 45.3906 0.211929 45.3906 0.473357V2.26257Z" fill="white"/>
<path d="M67.0991 0.000443473H64.8999C63.6434 0.000443473 62.5334 0.458687 61.597 1.36525C61.1566 1.79305 60.8082 2.306 60.5732 2.87273C60.3382 3.43947 60.2215 4.04808 60.2303 4.66135V11.2653C60.2303 12.5336 60.6967 13.6422 61.6169 14.5614C62.0425 14.9994 62.5532 15.3462 63.1176 15.5807C63.6821 15.8152 64.2885 15.9325 64.8999 15.9253H67.0991C68.3691 15.9253 69.4854 15.4679 70.4219 14.5614C70.8623 14.1336 71.2107 13.6206 71.4457 13.0539C71.6806 12.4872 71.7973 11.8786 71.7886 11.2653V4.66135C71.7968 4.04635 71.6779 3.43626 71.4394 2.86916C71.2008 2.30205 70.8477 1.79011 70.402 1.36525C69.9734 0.925579 69.4594 0.577774 68.8915 0.343107C68.3236 0.10844 67.7137 -0.00815777 67.0991 0.000443473ZM67.1127 13.1894H64.9062C64.6492 13.1935 64.3942 13.1447 64.157 13.046C63.9198 12.9473 63.7056 12.8008 63.5277 12.6157C63.3462 12.4409 63.203 12.2303 63.1073 11.9974C63.0116 11.7645 62.9655 11.5142 62.9718 11.2626V4.65864C62.9677 4.40281 63.0168 4.1489 63.1159 3.91292C63.215 3.67694 63.362 3.46401 63.5476 3.28753C63.7234 3.10727 63.9345 2.96506 64.1678 2.86977C64.4011 2.77448 64.6515 2.72815 64.9035 2.73366H67.1099C67.3682 2.72896 67.6245 2.77776 67.8629 2.87698C68.1013 2.97619 68.3164 3.12366 68.4947 3.31008C68.6761 3.485 68.8192 3.69556 68.9148 3.92845C69.0105 4.16135 69.0568 4.41152 69.0507 4.66316V11.2671C69.0548 11.5228 69.0058 11.7766 68.9067 12.0124C68.8076 12.2483 68.6606 12.4611 68.4749 12.6373C68.2982 12.818 68.086 12.9604 67.8516 13.0554C67.6171 13.1504 67.3656 13.196 67.1127 13.1894Z" fill="white"/>
<path d="M78.7868 7.05946C78.7272 7.1197 78.6244 7.0776 78.6244 6.99296V0.473357C78.6244 0.211929 78.412 0 78.1501 0H76.3562C76.0943 0 75.8819 0.211929 75.8819 0.473357V15.4515C75.8819 15.7129 76.0943 15.9249 76.3562 15.9249H78.1501C78.412 15.9249 78.6244 15.7129 78.6244 15.4515V11.3124C78.6244 11.1126 78.7035 10.921 78.8444 10.7791L80.4744 9.13858C80.5578 9.05461 80.6971 9.06665 80.7648 9.16368L85.2568 15.6003C85.3987 15.8036 85.6313 15.9249 85.8796 15.9249H86.9469C87.2089 15.9249 87.4213 15.7129 87.4213 15.4515V14.2567C87.4213 14.1195 87.3786 13.9858 87.2992 13.8738L82.6011 7.25013C82.5481 7.17529 82.5563 7.07325 82.6208 7.0079L87.2305 2.33492C87.3527 2.21096 87.4213 2.04397 87.4213 1.87002V0.473356C87.4213 0.211928 87.2089 0 86.9469 0H86.0465C85.8689 0 85.6987 0.0710145 85.5739 0.197173L78.7868 7.05946Z" fill="white"/>
<path d="M91.534 15.4515C91.534 15.7129 91.7464 15.9249 92.0084 15.9249H102.619C102.881 15.9249 103.093 15.7129 103.093 15.4515V13.6623C103.093 13.4009 102.881 13.1889 102.619 13.1889H94.7499C94.488 13.1889 94.2756 12.977 94.2756 12.7156V9.81412C94.2756 9.55269 94.488 9.34076 94.7499 9.34076H100.4C100.662 9.34076 100.874 9.12883 100.874 8.86741V7.07729C100.874 6.81586 100.662 6.60393 100.4 6.60393H94.7499C94.488 6.60393 94.2756 6.392 94.2756 6.13058V3.20928C94.2756 2.94786 94.488 2.73593 94.7499 2.73593H102.619C102.881 2.73593 103.093 2.524 103.093 2.26257V0.473357C103.093 0.211929 102.881 0 102.619 0H92.0084C91.7464 0 91.534 0.211929 91.534 0.473357V15.4515Z" fill="white"/>
<path d="M116.005 6.43621C116.005 6.60492 115.8 6.68939 115.681 6.57006L109.323 0.221969C109.181 0.0798487 108.988 0 108.786 0H107.662C107.4 0 107.188 0.211929 107.188 0.473357V15.4515C107.188 15.7129 107.4 15.9249 107.662 15.9249H109.455C109.717 15.9249 109.93 15.7129 109.93 15.4515V5.09631C109.93 4.92776 110.134 4.84322 110.253 4.96223L115.726 10.4074C115.904 10.585 116.005 10.8262 116.005 11.0778V15.4515C116.005 15.7129 116.217 15.9249 116.479 15.9249H118.272C118.534 15.9249 118.746 15.7129 118.746 15.4515V0.473357C118.746 0.211929 118.534 0 118.272 0H116.479C116.217 0 116.005 0.211929 116.005 0.473357V6.43621Z" fill="white"/>
<path d="M45.3571 23.3527C45.3571 23.6141 45.5695 23.826 45.8315 23.826H49.2812C49.5432 23.826 49.7556 24.038 49.7556 24.2994V36.5416C49.7556 36.803 49.9679 37.015 50.2299 37.015H52.0228C52.2848 37.015 52.4971 36.803 52.4971 36.5416V24.2994C52.4971 24.038 52.7095 23.826 52.9715 23.826H56.442C56.704 23.826 56.9164 23.6141 56.9164 23.3527V21.5635C56.9164 21.302 56.704 21.0901 56.442 21.0901H45.8315C45.5695 21.0901 45.3571 21.302 45.3571 21.5635V23.3527Z" fill="white"/>
<path d="M67.0656 21.0906H64.8664C63.6099 21.0906 62.4999 21.5488 61.5644 22.4554C61.1239 22.883 60.7755 23.3958 60.5403 23.9623C60.3052 24.5289 60.1883 25.1374 60.1968 25.7506V32.3554C60.1968 33.6237 60.6632 34.7323 61.5834 35.6506C62.0087 36.0892 62.5192 36.4366 63.0837 36.6716C63.6482 36.9066 64.2548 37.0242 64.8664 37.0172H67.0656C68.3311 37.0172 69.4519 36.559 70.3884 35.6524C70.8289 35.2248 71.1773 34.712 71.4125 34.1454C71.6476 33.5789 71.7645 32.9704 71.756 32.3572V25.7506C71.764 25.1356 71.645 24.5257 71.4062 23.9587C71.1675 23.3918 70.8143 22.88 70.3685 22.4554C69.9399 22.0157 69.4259 21.6679 68.858 21.4332C68.2901 21.1986 67.6802 21.082 67.0656 21.0906ZM67.0792 34.2795H64.8727C64.6158 34.2837 64.3607 34.2349 64.1235 34.1361C63.8863 34.0374 63.6721 33.8909 63.4942 33.7058C63.3127 33.531 63.1695 33.3204 63.0738 33.0875C62.9781 32.8546 62.932 32.6044 62.9383 32.3527V25.7506C62.9343 25.4949 62.9834 25.2411 63.0825 25.0053C63.1816 24.7695 63.3286 24.5567 63.5141 24.3803C63.6899 24.2001 63.901 24.0579 64.1343 23.9626C64.3676 23.8673 64.618 23.821 64.87 23.8265H67.0765C67.3334 23.8223 67.5885 23.8711 67.8257 23.9698C68.0629 24.0686 68.2771 24.2151 68.4549 24.4002C68.6363 24.5751 68.7794 24.7856 68.8751 25.0185C68.9708 25.2514 69.017 25.5016 69.0108 25.7533V32.3581C69.015 32.6138 68.966 32.8676 68.8669 33.1035C68.7678 33.3393 68.6207 33.5521 68.435 33.7283C68.259 33.9081 68.0478 34.0498 67.8145 34.1446C67.5813 34.2394 67.331 34.2853 67.0792 34.2795Z" fill="white"/>
<path d="M84.6671 32.355C84.6712 32.6107 84.6222 32.8645 84.5231 33.1003C84.424 33.3362 84.277 33.5489 84.0913 33.7252C83.9155 33.9054 83.7044 34.0476 83.4711 34.1429C83.2378 34.2382 82.9874 34.2845 82.7354 34.279H80.5262C80.2693 34.2832 80.0142 34.2344 79.777 34.1357C79.5398 34.037 79.3256 33.8905 79.1477 33.7053C78.9662 33.5305 78.823 33.32 78.7273 33.0871C78.6316 32.8541 78.5855 32.6039 78.5918 32.3523V21.5635C78.5918 21.302 78.3795 21.0901 78.1175 21.0901H76.3246C76.0626 21.0901 75.8503 21.302 75.8503 21.5635V32.355C75.8503 33.6232 76.3167 34.7319 77.2369 35.6502C77.6618 36.0885 78.1719 36.4358 78.7359 36.6708C79.2999 36.9058 79.906 37.0235 80.5172 37.0168H82.7164C83.9864 37.0168 85.1027 36.5585 86.0392 35.652C86.4795 35.2243 86.8278 34.7115 87.0628 34.1449C87.2978 33.5783 87.4145 32.9699 87.4059 32.3568V21.5635C87.4059 21.302 87.1935 21.0901 86.9316 21.0901H85.1388C84.8768 21.0901 84.6644 21.3021 84.6645 21.5636L84.6671 32.355Z" fill="white"/>
<path d="M103.061 25.7506C103.069 25.1357 102.95 24.5258 102.711 23.9589C102.473 23.392 102.12 22.8802 101.674 22.4554C101.246 22.0157 100.732 21.6679 100.164 21.4332C99.5957 21.1986 98.9858 21.082 98.3712 21.0906H91.9758C91.7138 21.0906 91.5015 21.3025 91.5015 21.5639V36.5439C91.5015 36.8053 91.7138 37.0172 91.9758 37.0172H93.7696C94.0316 37.0172 94.244 36.8053 94.244 36.5439V30.9056C94.244 30.6442 94.4563 30.4322 94.7183 30.4322H98.3848C98.6447 30.4267 98.9029 30.4748 99.1433 30.5733C99.3838 30.6719 99.6013 30.8188 99.7822 31.005C99.9633 31.1791 100.106 31.3887 100.202 31.6207C100.298 31.8526 100.345 32.1019 100.339 32.3527C100.325 33.3008 100.319 34.1568 100.319 34.8974V36.5439C100.319 36.8053 100.532 37.0172 100.793 37.0172H102.586C102.848 37.0172 103.061 36.8053 103.061 36.5439V32.3572C103.061 31.1791 102.583 30.149 101.639 29.2863C101.506 29.1641 101.506 28.9498 101.64 28.828C102.584 27.9721 103.061 26.9398 103.061 25.7506ZM100.319 25.7506C100.325 26.0095 100.276 26.2668 100.177 26.5063C100.078 26.7457 99.9304 26.962 99.7434 27.1415C99.5675 27.3218 99.3564 27.4639 99.1232 27.5592C98.8899 27.6545 98.6395 27.7009 98.3875 27.6954H94.721C94.459 27.6954 94.2467 27.4835 94.2467 27.222V24.2998C94.2467 24.0384 94.459 23.8265 94.721 23.8265H98.3875C98.6445 23.8223 98.8995 23.8711 99.1367 23.9698C99.3739 24.0686 99.5881 24.2151 99.766 24.4002C99.9465 24.575 100.089 24.7852 100.184 25.0176C100.279 25.25 100.325 25.4996 100.319 25.7506Z" fill="white"/>
<path d="M122.808 36.5416C122.808 36.803 123.021 37.015 123.283 37.015H133.893C134.155 37.015 134.368 36.803 134.368 36.5416V34.7524C134.368 34.491 134.155 34.279 133.893 34.279H126.024C125.762 34.279 125.55 34.0671 125.55 33.8057V30.9033C125.55 30.6419 125.762 30.43 126.024 30.43H131.673C131.935 30.43 132.148 30.2181 132.148 29.9566V28.1674C132.148 27.906 131.935 27.6941 131.673 27.6941H126.024C125.762 27.6941 125.55 27.4821 125.55 27.2207V24.2994C125.55 24.038 125.762 23.826 126.024 23.826H133.893C134.155 23.826 134.368 23.6141 134.368 23.3527V21.5635C134.368 21.302 134.155 21.0901 133.893 21.0901H123.283C123.021 21.0901 122.808 21.302 122.808 21.5635V36.5416Z" fill="white"/>
<path d="M147.733 21.0901C147.471 21.0901 147.258 21.302 147.258 21.5635V26.0187C147.258 26.2187 147.179 26.4107 147.038 26.5526L144.441 29.159C144.33 29.2705 144.15 29.2708 144.038 29.1596L141.425 26.552C141.283 26.4099 141.203 26.2173 141.203 26.0164V21.5635C141.203 21.302 140.991 21.0901 140.729 21.0901H138.936C138.674 21.0901 138.461 21.302 138.461 21.5635V26.9926C138.461 27.2436 138.561 27.4844 138.739 27.6619L142.693 31.6086C142.8 31.7151 142.86 31.8596 142.86 32.0102V36.5416C142.86 36.803 143.072 37.015 143.334 37.015H145.127C145.389 37.015 145.601 36.803 145.601 36.5416V32.0102C145.601 31.8596 145.661 31.7151 145.768 31.6086L149.722 27.6619C149.9 27.4844 150 27.2436 150 26.9926V21.5635C150 21.302 149.788 21.0901 149.526 21.0901H147.733Z" fill="white"/>
<path d="M116.004 27.5478C116.004 27.7165 115.799 27.801 115.68 27.6817L109.322 21.3336C109.18 21.1915 108.987 21.1116 108.785 21.1116H107.661C107.399 21.1116 107.187 21.3235 107.187 21.585V36.5631C107.187 36.8245 107.399 37.0365 107.661 37.0365H109.454C109.716 37.0365 109.929 36.8245 109.929 36.5631V26.2079C109.929 26.0394 110.133 25.9548 110.252 26.0738L115.725 31.519C115.904 31.6966 116.004 31.9378 116.004 32.1894V36.5631C116.004 36.8245 116.216 37.0365 116.478 37.0365H118.271C118.533 37.0365 118.745 36.8245 118.745 36.5631V21.585C118.745 21.3235 118.533 21.1116 118.271 21.1116H116.478C116.216 21.1116 116.004 21.3235 116.004 21.585V27.5478Z" fill="white"/>
<path fill-rule="evenodd" clip-rule="evenodd" d="M0 18.5078C0 28.7131 8.31953 37.0165 18.5459 37.0165C28.7723 37.0165 37.0919 28.7121 37.0919 18.5078C37.0919 8.30343 28.7723 0 18.5459 0C8.31953 0 0 8.3024 0 18.5078ZM2.26887 18.5078C2.26887 9.55183 9.57359 2.2642 18.5459 2.2642C27.5214 2.2642 34.823 9.5508 34.823 18.5078C34.823 27.4647 27.5214 34.7523 18.5459 34.7523C9.5705 34.7523 2.26887 27.4637 2.26887 18.5078ZM27.1001 13.0272H9.99269C9.94376 13.0273 9.89566 13.0145 9.85316 12.9902C9.81065 12.9659 9.77522 12.9309 9.75035 12.8886C9.72549 12.8463 9.71206 12.7983 9.71139 12.7492C9.71073 12.7002 9.72285 12.6518 9.74655 12.6088L10.8385 10.6316C10.8628 10.5874 10.8984 10.5505 10.9417 10.5248C10.985 10.4991 11.0343 10.4855 11.0846 10.4854H25.9759C26.0256 10.4856 26.0743 10.4988 26.1172 10.5239C26.1601 10.5489 26.1956 10.5849 26.2203 10.6281L27.3445 12.6062C27.3691 12.649 27.3819 12.6976 27.3818 12.747C27.3817 12.7964 27.3685 12.8449 27.3438 12.8876C27.319 12.9303 27.2834 12.9657 27.2406 12.9902C27.1979 13.0147 27.1494 13.0275 27.1001 13.0272ZM8.994 14.7753H16.8564C17.0059 14.7735 17.1543 14.8016 17.2928 14.8579C17.4313 14.9142 17.5571 14.9976 17.6628 15.1032C17.8225 15.2684 17.9295 15.4773 17.9701 15.7033C18.0107 15.9294 17.9831 16.1623 17.8908 16.3727C17.3827 17.5778 15.5219 21.176 14.1721 23.7862L14.1721 23.7863L14.1721 23.7864L14.172 23.7864C13.5003 25.0853 12.9552 26.1395 12.7662 26.5323C12.7433 26.58 12.7072 26.6202 12.6621 26.6482C12.6171 26.6761 12.565 26.6907 12.512 26.6901H11.6812H10.8854C10.8371 26.69 10.7898 26.6775 10.7478 26.6538C10.7058 26.6301 10.6707 26.5961 10.6457 26.5549C10.6207 26.5138 10.6067 26.4669 10.6051 26.4188C10.6034 26.3708 10.6142 26.3231 10.6364 26.2803C11.337 24.9306 13.5638 20.6329 14.0312 19.6433C15.014 17.5681 13.5857 17.3318 12.83 17.3318H7.7631C7.71392 17.3317 7.66562 17.3188 7.62299 17.2943C7.58036 17.2698 7.54489 17.2346 7.52008 17.1922C7.49527 17.1498 7.48199 17.1017 7.48156 17.0526C7.48113 17.0036 7.49356 16.9552 7.51761 16.9124L8.59651 15.0064C8.63638 14.9362 8.69417 14.8779 8.764 14.8373C8.83383 14.7967 8.91319 14.7753 8.994 14.7753ZM29.4147 16.9154L28.3365 15.0063C28.2965 14.9361 28.2385 14.8777 28.1685 14.8372C28.0985 14.7966 28.019 14.7752 27.9381 14.7753H20.0755C19.9258 14.7738 19.7773 14.8022 19.6387 14.8589C19.5002 14.9157 19.3745 14.9996 19.2691 15.1057C19.1093 15.2709 19.0023 15.4798 18.9617 15.7057C18.9211 15.9317 18.9487 16.1646 19.041 16.3749C19.5546 17.5927 21.4497 21.256 22.8029 23.8717L22.8031 23.8722C23.455 25.1323 23.981 26.1492 24.1662 26.5323C24.1891 26.5801 24.2252 26.6204 24.2702 26.6483C24.3153 26.6763 24.3674 26.6908 24.4205 26.6901H25.2505H26.0474C26.0956 26.69 26.1429 26.6775 26.1849 26.6538C26.2269 26.6301 26.2621 26.5961 26.2871 26.555C26.3121 26.5138 26.3261 26.467 26.3277 26.4189C26.3293 26.3708 26.3185 26.3231 26.2964 26.2804L26.1629 26.0228L26.1629 26.0227C25.3496 24.4529 23.342 20.5779 22.9011 19.6448C21.9217 17.5701 23.3467 17.3338 24.1025 17.3338H29.17C29.219 17.3335 29.2671 17.3204 29.3094 17.2959C29.3518 17.2714 29.3871 17.2364 29.4118 17.1942C29.4365 17.1519 29.4497 17.104 29.4502 17.0552C29.4507 17.0063 29.4385 16.9581 29.4147 16.9154Z" fill="white"/>
</svg>
