<svg width="16" height="17" viewBox="0 0 16 17" fill="none" xmlns="http://www.w3.org/2000/svg">
<g clip-path="url(#clip0_959_25545)">
<path d="M13.3892 10.6332L14.1906 11.1139C14.24 11.1435 14.2809 11.1854 14.3093 11.2355C14.3377 11.2856 14.3527 11.3423 14.3527 11.3999C14.3527 11.4575 14.3377 11.5141 14.3093 11.5643C14.2809 11.6144 14.24 11.6563 14.1906 11.6859L8.34389 15.1939C8.2402 15.2562 8.12152 15.2891 8.00055 15.2891C7.87959 15.2891 7.76091 15.2562 7.65722 15.1939L1.81055 11.6859C1.76112 11.6563 1.7202 11.6144 1.69179 11.5643C1.66337 11.5141 1.64844 11.4575 1.64844 11.3999C1.64844 11.3423 1.66337 11.2856 1.69179 11.2355C1.7202 11.1854 1.76112 11.1435 1.81055 11.1139L2.61189 10.6332L8.00055 13.8665L13.3892 10.6332ZM13.3892 7.49988L14.1906 7.98055C14.24 8.01015 14.2809 8.05205 14.3093 8.10217C14.3377 8.1523 14.3527 8.20893 14.3527 8.26655C14.3527 8.32417 14.3377 8.3808 14.3093 8.43093C14.2809 8.48105 14.24 8.52295 14.1906 8.55255L8.00055 12.2666L1.81055 8.55255C1.76112 8.52295 1.7202 8.48105 1.69179 8.43093C1.66337 8.3808 1.64844 8.32417 1.64844 8.26655C1.64844 8.20893 1.66337 8.1523 1.69179 8.10217C1.7202 8.05205 1.76112 8.01015 1.81055 7.98055L2.61189 7.49988L8.00055 10.7332L13.3892 7.49988ZM8.34322 1.37255L14.1906 4.88055C14.24 4.91015 14.2809 4.95205 14.3093 5.00217C14.3377 5.0523 14.3527 5.10893 14.3527 5.16655C14.3527 5.22417 14.3377 5.2808 14.3093 5.33093C14.2809 5.38105 14.24 5.42295 14.1906 5.45255L8.00055 9.16655L1.81055 5.45255C1.76112 5.42295 1.7202 5.38105 1.69179 5.33093C1.66337 5.2808 1.64844 5.22417 1.64844 5.16655C1.64844 5.10893 1.66337 5.0523 1.69179 5.00217C1.7202 4.95205 1.76112 4.91015 1.81055 4.88055L7.65722 1.37255C7.76091 1.31025 7.87959 1.27734 8.00055 1.27734C8.12152 1.27734 8.2402 1.31025 8.34389 1.37255H8.34322ZM8.00055 2.72122L3.92522 5.16655L8.00055 7.61188L12.0759 5.16655L8.00055 2.72122Z" fill="white"/>
</g>
<defs>
<clipPath id="clip0_959_25545">
<rect width="16" height="16" fill="white" transform="translate(0 0.5)"/>
</clipPath>
</defs>
</svg>
