<svg width="12" height="15" viewBox="0 0 12 15" fill="none" xmlns="http://www.w3.org/2000/svg">
<path d="M1.33464 12.834H10.668V14.1673H1.33464V12.834ZM6.0013 11.5007C4.58681 11.5007 3.23026 10.9387 2.23007 9.93855C1.22987 8.93836 0.667969 7.58181 0.667969 6.16732C0.667969 4.75283 1.22987 3.39628 2.23007 2.39608C3.23026 1.39589 4.58681 0.833984 6.0013 0.833984C7.41579 0.833984 8.77234 1.39589 9.77254 2.39608C10.7727 3.39628 11.3346 4.75283 11.3346 6.16732C11.3346 7.58181 10.7727 8.93836 9.77254 9.93855C8.77234 10.9387 7.41579 11.5007 6.0013 11.5007ZM6.0013 10.1673C7.06217 10.1673 8.07958 9.74589 8.82973 8.99574C9.57987 8.2456 10.0013 7.22818 10.0013 6.16732C10.0013 5.10645 9.57987 4.08904 8.82973 3.33889C8.07958 2.58875 7.06217 2.16732 6.0013 2.16732C4.94044 2.16732 3.92302 2.58875 3.17287 3.33889C2.42273 4.08904 2.0013 5.10645 2.0013 6.16732C2.0013 7.22818 2.42273 8.2456 3.17287 8.99574C3.92302 9.74589 4.94044 10.1673 6.0013 10.1673Z" fill="white"/>
</svg>
