<svg width="65" height="65" viewBox="0 0 65 65" fill="none" xmlns="http://www.w3.org/2000/svg">
<path fill-rule="evenodd" clip-rule="evenodd" d="M0 32.4991C0 50.4194 14.5792 65 32.5 65C50.4208 65 65 50.4176 65 32.4991C65 14.5806 50.4208 0 32.5 0C14.5792 0 0 14.5788 0 32.4991ZM3.97598 32.4991C3.97598 16.7727 16.7768 3.97587 32.5 3.97587C48.2286 3.97587 61.024 16.7709 61.024 32.4991C61.024 48.2273 48.2286 61.0241 32.5 61.0241C16.7714 61.0241 3.97598 48.2255 3.97598 32.4991ZM47.491 22.8748H17.5118C17.426 22.8749 17.3418 22.8525 17.2673 22.8098C17.1928 22.7671 17.1307 22.7056 17.0871 22.6314C17.0435 22.5572 17.02 22.4728 17.0188 22.3867C17.0177 22.3005 17.0389 22.2155 17.0805 22.1401L18.9939 18.6681C19.0365 18.5905 19.0989 18.5258 19.1748 18.4807C19.2506 18.4356 19.3371 18.4116 19.4253 18.4114H45.5209C45.6079 18.4117 45.6933 18.4351 45.7684 18.479C45.8436 18.523 45.9059 18.5861 45.9492 18.6619L47.9192 22.1355C47.9623 22.2107 47.9848 22.296 47.9846 22.3828C47.9843 22.4695 47.9613 22.5547 47.9179 22.6297C47.8745 22.7046 47.8121 22.7668 47.7372 22.8098C47.6622 22.8529 47.5773 22.8753 47.491 22.8748ZM15.7619 25.9454H29.54C29.802 25.9423 30.062 25.9916 30.3047 26.0904C30.5474 26.1893 30.7678 26.3357 30.953 26.5211C31.233 26.8113 31.4205 27.1781 31.4916 27.575C31.5627 27.9719 31.5144 28.381 31.3526 28.7503C30.4623 30.8665 27.2014 37.1849 24.836 41.7684L24.836 41.7684L24.8359 41.7685L24.8359 41.7687L24.8351 41.7702C23.6584 44.0502 22.7034 45.9007 22.3723 46.5903C22.3321 46.6741 22.2689 46.7447 22.1899 46.7938C22.111 46.8429 22.0198 46.8685 21.9268 46.8675H20.4709H19.0763C18.9918 46.8672 18.9088 46.8452 18.8353 46.8037C18.7617 46.7621 18.7001 46.7023 18.6563 46.6301C18.6125 46.5578 18.588 46.4756 18.5851 46.3911C18.5823 46.3067 18.6012 46.2229 18.64 46.1479C19.8678 43.7778 23.77 36.2311 24.5891 34.4934C26.3113 30.8494 23.8083 30.4345 22.4841 30.4345H13.6048C13.5187 30.4343 13.434 30.4116 13.3593 30.3686C13.2846 30.3256 13.2224 30.2639 13.179 30.1894C13.1355 30.115 13.1122 30.0305 13.1115 29.9443C13.1107 29.8581 13.1325 29.7732 13.1746 29.6981L15.0653 26.3511C15.1352 26.228 15.2365 26.1255 15.3588 26.0542C15.4812 25.9829 15.6203 25.9454 15.7619 25.9454ZM51.5409 29.7033L49.6515 26.351C49.5814 26.2277 49.4798 26.1252 49.3572 26.054C49.2345 25.9827 49.0952 25.9452 48.9533 25.9454H35.1749C34.9125 25.9426 34.6522 25.9926 34.4095 26.0922C34.1667 26.1919 33.9465 26.3392 33.7617 26.5255C33.4817 26.8156 33.2942 27.1824 33.2231 27.5792C33.1519 27.976 33.2003 28.385 33.3621 28.7543C34.2621 30.8926 37.5831 37.3253 39.9544 41.9185C41.0969 44.1315 42.019 45.9175 42.3435 46.5904C42.3836 46.6743 42.4468 46.745 42.5258 46.7941C42.6047 46.8432 42.6961 46.8686 42.7891 46.8675H44.2436H45.64C45.7245 46.8672 45.8075 46.8452 45.8811 46.8037C45.9546 46.7621 46.0163 46.7024 46.0601 46.6301C46.1039 46.5579 46.1284 46.4756 46.1313 46.3912C46.1341 46.3068 46.1152 46.223 46.0764 46.148L45.8428 45.6963L45.8421 45.6948C44.4166 42.9379 40.899 36.1345 40.1265 34.4961C38.4101 30.8529 40.9074 30.4381 42.2318 30.4381H51.1122C51.198 30.4375 51.2822 30.4145 51.3565 30.3715C51.4308 30.3285 51.4926 30.2669 51.5359 30.1928C51.5791 30.1187 51.6023 30.0345 51.6032 29.9487C51.6041 29.8629 51.5826 29.7783 51.5409 29.7033Z" fill="white"/>
</svg>
