<svg width="18" height="15" viewBox="0 0 18 15" fill="none" xmlns="http://www.w3.org/2000/svg">
<path d="M17.4683 2.21376C16.8321 2.49517 16.1574 2.67999 15.4666 2.76209C16.1947 2.32662 16.7397 1.64127 16.9999 0.83376C16.3166 1.24043 15.5674 1.52543 14.7866 1.67959C14.2621 1.11841 13.5669 0.74623 12.809 0.620914C12.0512 0.495599 11.2732 0.62417 10.596 0.986638C9.91875 1.34911 9.38024 1.92516 9.06418 2.62525C8.74812 3.32535 8.67221 4.11024 8.84825 4.85793C7.46251 4.78847 6.10686 4.42836 4.86933 3.80098C3.63179 3.1736 2.54003 2.29297 1.66492 1.21626C1.35516 1.7483 1.19238 2.35312 1.19326 2.96876C1.19326 4.17709 1.80826 5.2446 2.74326 5.8696C2.18993 5.85218 1.64878 5.70275 1.16492 5.43376V5.47709C1.16509 6.28185 1.44356 7.06178 1.95313 7.68465C2.46269 8.30751 3.17199 8.73499 3.96075 8.8946C3.4471 9.03379 2.90851 9.05431 2.38576 8.9546C2.60814 9.64729 3.04159 10.2531 3.62541 10.6872C4.20924 11.1213 4.9142 11.3619 5.64159 11.3754C4.91866 11.9432 4.0909 12.3629 3.20566 12.6106C2.32041 12.8582 1.39503 12.929 0.482422 12.8188C2.0755 13.8433 3.93 14.3872 5.82409 14.3854C12.2349 14.3854 15.7408 9.0746 15.7408 4.46876C15.7408 4.31876 15.7366 4.16709 15.7299 4.01876C16.4123 3.52557 17.0013 2.91461 17.4691 2.21459L17.4683 2.21376Z" fill="white"/>
</svg>
